<svg width="646" height="103" viewBox="0 0 646 103" fill="none" xmlns="http://www.w3.org/2000/svg">
<path d="M0 31.7006V61.8866C0 63.2931 1.72928 64.0504 2.70199 62.9685L43.8804 21.4223C54.6883 10.4947 72.9538 15.1471 77.6013 29.3204C77.9255 30.2941 78.574 31.1597 79.3305 31.8088L86.0315 37.1103C87.0042 37.8676 87.0042 39.3824 86.0315 40.1397L82.4648 42.9527C81.0598 44.0347 80.3033 45.8739 80.4113 47.605C81.4921 65.8897 77.8174 84.1744 69.3872 100.728C68.8468 101.81 69.6034 103 70.7922 103H71.3326C88.8415 103 103 88.8267 103 71.2994V31.7006C103 14.1733 88.8415 0 71.3326 0H31.6674C14.1584 0 0 14.1733 0 31.7006Z" fill="#091729"/>
<path d="M64.4155 43.9265C67.5791 43.9265 70.1437 41.3592 70.1437 38.1923C70.1437 35.0253 67.5791 32.458 64.4155 32.458C61.2519 32.458 58.6873 35.0253 58.6873 38.1923C58.6873 41.3592 61.2519 43.9265 64.4155 43.9265Z" fill="#091729"/>
<path d="M637.497 28.48C635.924 28.48 634.51 28.12 633.257 27.4C632.004 26.6934 631.024 25.7 630.317 24.42C629.61 23.14 629.257 21.6734 629.257 20.02V20C629.257 18.3467 629.61 16.88 630.317 15.6C631.024 14.3067 632.004 13.3067 633.257 12.6C634.51 11.88 635.924 11.52 637.497 11.52C639.07 11.52 640.484 11.88 641.737 12.6C642.99 13.3067 643.97 14.3067 644.677 15.6C645.384 16.88 645.737 18.3467 645.737 20V20.02C645.737 21.6734 645.384 23.14 644.677 24.42C643.97 25.7 642.99 26.6934 641.737 27.4C640.484 28.12 639.07 28.48 637.497 28.48ZM637.497 27.02C638.764 27.02 639.904 26.7267 640.917 26.14C641.93 25.5534 642.724 24.7267 643.297 23.66C643.87 22.5934 644.157 21.38 644.157 20.02V20C644.157 18.6267 643.87 17.4134 643.297 16.36C642.724 15.2934 641.93 14.4667 640.917 13.88C639.904 13.28 638.764 12.98 637.497 12.98C636.244 12.98 635.11 13.28 634.097 13.88C633.084 14.4667 632.29 15.2934 631.717 16.36C631.144 17.4134 630.857 18.6267 630.857 20V20.02C630.857 21.38 631.144 22.5934 631.717 23.66C632.29 24.7267 633.084 25.5534 634.097 26.14C635.11 26.7267 636.244 27.02 637.497 27.02ZM634.717 23.86V16.1H638.117C638.93 16.1 639.577 16.3067 640.057 16.72C640.537 17.12 640.777 17.6667 640.777 18.36C640.777 19.6267 639.97 20.36 638.357 20.56V20.82L638.797 20.98L640.737 23.86H638.777L636.897 20.76H636.377V23.86H634.717ZM637.837 19.4C638.624 19.4 639.017 19.0934 639.017 18.48C639.017 18.2267 638.93 18.0267 638.757 17.88C638.584 17.72 638.344 17.64 638.037 17.64H636.377V19.4H637.837Z" fill="#091729"/>
<path d="M127 84.2281V22.7188H141.933L138.137 39.1719H140.288C144 27.0219 150.919 20.9469 161.043 20.9469C168.214 20.9469 173.656 23.0563 177.368 27.275C181.08 31.4938 182.936 37.7375 182.936 46.0063V84.2281H168.003V48.4109C168.003 39.2141 164.08 34.6156 156.234 34.6156C151.847 34.6156 148.345 36.2188 145.73 39.425C143.199 42.5469 141.933 46.8078 141.933 52.2078V84.2281H127Z" fill="#091729"/>
<path d="M247.229 57.5234H203.062C203.569 61.9109 204.708 65.3281 206.479 67.775C209.263 71.7406 213.482 73.7234 219.135 73.7234C222.425 73.7234 225.209 73.0062 227.487 71.5719C229.765 70.1375 231.368 68.0703 232.296 65.3703H247.229C246.133 71.4453 243.011 76.4234 237.864 80.3047C232.802 84.1016 226.686 86 219.514 86C207.703 86 199.139 82.1187 193.824 74.3562C190.027 69.0406 188.129 62.1641 188.129 53.7266C188.129 45.7109 190.196 38.7078 194.33 32.7172C196.946 28.9203 200.32 26.0094 204.454 23.9844C208.588 21.9594 213.187 20.9469 218.249 20.9469C227.445 20.9469 234.574 23.7313 239.636 29.3C244.698 34.7844 247.229 42.5047 247.229 52.4609V57.5234ZM232.17 46.7656C232.001 42.2937 230.693 38.8766 228.246 36.5141C225.884 34.1516 222.594 32.9703 218.375 32.9703C215.929 32.9703 213.651 33.5187 211.541 34.6156C209.432 35.6281 207.703 37.1047 206.353 39.0453C204.918 41.3234 203.948 43.8969 203.442 46.7656H232.17Z" fill="#091729"/>
<path d="M274.823 86C266.977 86 260.86 84.1437 256.473 80.4312C252.085 76.7188 249.892 71.5297 249.892 64.8641V64.1047H264.319V64.8641C264.319 71.1922 267.947 74.3562 275.203 74.3562C278.915 74.3562 281.572 73.5547 283.175 71.9516C284.357 70.7703 284.947 69.2937 284.947 67.5219C284.947 65.5812 284.314 64.0625 283.049 62.9656C281.868 61.7844 279.843 60.8984 276.974 60.3078L267.862 58.2828C256.473 56.0047 250.778 49.8875 250.778 39.9313C250.778 34.8688 252.381 30.7344 255.587 27.5281C259.974 23.1406 266.639 20.9469 275.582 20.9469C283.344 20.9469 289.419 22.8453 293.806 26.6422C298.193 30.4391 300.387 35.6281 300.387 42.2094V42.8422H285.96V42.2094C285.96 39.0875 285.031 36.725 283.175 35.1219C281.319 33.4344 278.577 32.5906 274.949 32.5906C271.237 32.5906 268.58 33.3922 266.977 34.9953C265.795 36.1766 265.205 37.6531 265.205 39.425C265.205 41.2813 265.838 42.7578 267.103 43.8547C268.453 44.9516 270.478 45.7953 273.178 46.3859L281.151 48.1578C287.478 49.5078 292.118 51.7016 295.071 54.7391C298.024 57.6922 299.501 61.7422 299.501 66.8891C299.501 72.0359 297.855 76.2125 294.565 79.4187C290.347 83.8062 283.766 86 274.823 86Z" fill="#091729"/>
<path d="M356.223 35.375H327.749V63.725C327.749 66.7625 328.339 69.0828 329.52 70.6859C330.702 72.2047 332.347 72.9641 334.456 72.9641C336.903 72.9641 338.632 72.1625 339.645 70.5594C340.741 68.8719 341.29 66.1297 341.29 62.3328V53.4734H356.223V62.5859C356.223 69.9266 354.283 75.6641 350.402 79.7984C346.605 83.9328 341.29 86 334.456 86C320.029 86 312.815 78.6172 312.815 63.8516V35.375H300.666V22.7188H312.815V11.9609L327.749 5V22.7188H356.223V35.375Z" fill="#091729"/>
<path d="M363.204 84.2281V22.7188H378.138L374.341 39.1719H376.492C378.095 33.1812 380.458 28.6672 383.579 25.6297C386.701 22.5078 390.666 20.9469 395.475 20.9469C400.116 20.9469 403.954 22.55 406.992 25.7563C410.113 28.9625 411.674 33.4344 411.674 39.1719H413.826C416.694 27.0219 423.359 20.9469 433.821 20.9469C440.233 20.9469 445.084 22.9719 448.375 27.0219C451.749 31.0719 453.437 37.0203 453.437 44.8672V84.2281H438.503V47.9047C438.503 43.5172 437.66 40.2266 435.972 38.0328C434.285 35.7547 431.796 34.6156 428.506 34.6156C424.456 34.6156 421.334 36.1344 419.141 39.1719C416.947 42.125 415.85 46.175 415.85 51.3219V84.2281H400.917V47.9047C400.917 43.6859 399.947 40.4375 398.006 38.1594C396.15 35.7969 393.704 34.6156 390.666 34.6156C386.617 34.6156 383.495 36.0922 381.301 39.0453C379.192 41.9984 378.138 46.0906 378.138 51.3219V84.2281H363.204Z" fill="#091729"/>
<path d="M486.915 20.9469C495.689 20.9469 502.354 22.9719 506.91 27.0219C511.466 30.9875 513.744 36.725 513.744 44.2344V84.2281H498.811L502.354 67.775H500.203C498.6 74.0187 496.069 78.6172 492.61 81.5703C489.235 84.5234 484.721 86 479.069 86C473.332 86 468.733 84.2703 465.274 80.8109C462.153 77.6891 460.592 73.5969 460.592 68.5344C460.592 63.2187 462.11 59.0422 465.148 56.0047C468.944 52.2078 474.639 50.0563 482.232 49.55L498.811 48.4109V44.2344C498.811 40.8594 497.756 38.2437 495.647 36.3875C493.622 34.4469 490.585 33.4766 486.535 33.4766C481.557 33.4766 478.309 34.7 476.791 37.1469C475.272 39.5094 474.513 41.7453 474.513 43.8547V44.3609H459.326V43.8547C459.326 41.6609 459.833 38.9187 460.845 35.6281C461.857 32.2531 464.388 28.9625 468.438 25.7563C472.572 22.55 478.731 20.9469 486.915 20.9469ZM483.624 74.3562C486.915 74.3562 489.699 73.5125 491.977 71.825C494.255 70.0531 495.942 67.9437 497.039 65.4969C498.136 63.05 498.726 60.7297 498.811 58.5359L485.776 59.9281C482.148 60.2656 479.49 61.2781 477.803 62.9656C476.538 64.2312 475.905 65.8344 475.905 67.775C475.905 69.6312 476.495 71.15 477.676 72.3312C479.026 73.6812 481.009 74.3562 483.624 74.3562Z" fill="#091729"/>
<path d="M570.854 35.375H542.38V63.725C542.38 66.7625 542.97 69.0828 544.151 70.6859C545.333 72.2047 546.978 72.9641 549.087 72.9641C551.534 72.9641 553.263 72.1625 554.276 70.5594C555.372 68.8719 555.921 66.1297 555.921 62.3328V53.4734H570.854V62.5859C570.854 69.9266 568.914 75.6641 565.033 79.7984C561.236 83.9328 555.921 86 549.087 86C534.66 86 527.446 78.6172 527.446 63.8516V35.375H515.297V22.7188H527.446V11.9609L542.38 5V22.7188H570.854V35.375Z" fill="#091729"/>
<path d="M632 57.5234H587.833C588.339 61.9109 589.478 65.3281 591.25 67.775C594.034 71.7406 598.253 73.7234 603.905 73.7234C607.196 73.7234 609.98 73.0062 612.258 71.5719C614.536 70.1375 616.139 68.0703 617.067 65.3703H632C630.903 71.4453 627.782 76.4234 622.635 80.3047C617.573 84.1016 611.456 86 604.285 86C592.473 86 583.91 82.1187 578.595 74.3562C574.798 69.0406 572.9 62.1641 572.9 53.7266C572.9 45.7109 574.967 38.7078 579.101 32.7172C581.716 28.9203 585.091 26.0094 589.225 23.9844C593.359 21.9594 597.957 20.9469 603.019 20.9469C612.216 20.9469 619.345 23.7313 624.407 29.3C629.469 34.7844 632 42.5047 632 52.4609V57.5234ZM616.94 46.7656C616.771 42.2937 615.464 38.8766 613.017 36.5141C610.655 34.1516 607.364 32.9703 603.146 32.9703C600.699 32.9703 598.421 33.5187 596.312 34.6156C594.203 35.6281 592.473 37.1047 591.123 39.0453C589.689 41.3234 588.719 43.8969 588.213 46.7656H616.94Z" fill="#091729"/>
</svg>
