<svg width="125" height="125" viewBox="0 0 125 125" fill="none" xmlns="http://www.w3.org/2000/svg">
<path d="M0 38.4716V75.105C0 76.812 2.09864 77.7311 3.27912 76.4181L53.2529 25.9979C66.3694 12.7363 88.5362 18.3824 94.1763 35.583C94.5698 36.7647 95.3568 37.8151 96.2749 38.6029L104.407 45.0368C105.588 45.9559 105.588 47.7941 104.407 48.7132L100.079 52.1271C98.3736 53.4401 97.4554 55.6723 97.5866 57.7731C98.8982 79.9632 94.4386 102.153 84.2078 122.243C83.5519 123.556 84.4701 125 85.9129 125H86.5687C107.817 125 125 107.799 125 86.5284V38.4716C125 17.2006 107.817 0 86.5687 0H38.4313C17.1826 0 0 17.2006 0 38.4716Z" fill="#FF9A3D"/>
<path d="M78.174 53.3088C82.0134 53.3088 85.1258 50.1932 85.1258 46.3498C85.1258 42.5064 82.0134 39.3908 78.174 39.3908C74.3347 39.3908 71.2223 42.5064 71.2223 46.3498C71.2223 50.1932 74.3347 53.3088 78.174 53.3088Z" fill="#FF9A3D"/>
</svg>
