<svg width="205" height="205" viewBox="0 0 205 205" fill="none" xmlns="http://www.w3.org/2000/svg">
<circle cx="102.5" cy="102.5" r="102.5" fill="#005B66" fill-opacity="0.1"/>
<circle cx="135" cy="54" r="9" fill="#FF9A3D"/>
<path d="M116.625 126.444H87.375M116.625 126.444H141L134.151 119.576C133.231 118.653 132.501 117.558 132.004 116.352C131.506 115.147 131.25 113.855 131.25 112.55V97.1111C131.251 91.0437 129.376 85.1252 125.884 80.1706C122.392 75.2159 117.454 71.4687 111.75 69.4449V67.7778C111.75 65.1845 110.723 62.6975 108.894 60.8638C107.066 59.0302 104.586 58 102 58C99.4141 58 96.9342 59.0302 95.1057 60.8638C93.2772 62.6975 92.25 65.1845 92.25 67.7778V69.4449C80.8913 73.4733 72.75 84.3413 72.75 97.1111V112.555C72.75 115.185 71.7068 117.713 69.8494 119.576L63 126.444H87.375H116.625ZM116.625 126.444V131.333C116.625 135.223 115.084 138.954 112.341 141.704C109.599 144.455 105.879 146 102 146C98.1212 146 94.4013 144.455 91.6586 141.704C88.9158 138.954 87.375 135.223 87.375 131.333V126.444H116.625Z" stroke="#005B66" stroke-opacity="0.7" stroke-width="6" stroke-linecap="round" stroke-linejoin="round"/>
</svg>
