<svg width="205" height="205" viewBox="0 0 205 205" fill="none" xmlns="http://www.w3.org/2000/svg">
<circle cx="102.5" cy="102.5" r="102.5" fill="#005B66" fill-opacity="0.1"/>
<path d="M88.25 121.667H68.5833C65.9754 121.667 63.4742 120.631 61.6301 118.787C59.786 116.942 58.75 114.441 58.75 111.833V72.5C58.75 69.892 59.786 67.3909 61.6301 65.5468C63.4742 63.7027 65.9754 62.6667 68.5833 62.6667H137.417C140.025 62.6667 142.526 63.7027 144.37 65.5468C146.214 67.3909 147.25 69.892 147.25 72.5V111.833C147.25 114.441 146.214 116.942 144.37 118.787C142.526 120.631 140.025 121.667 137.417 121.667H112.833L88.25 146.25V121.667Z" stroke="#005B66" stroke-opacity="0.7" stroke-width="6" stroke-linecap="round" stroke-linejoin="round"/>
<path d="M83.3333 92.1667H83.3825M103 92.1667H103.049M122.667 92.1667H122.716" stroke="#FF9A3D" stroke-width="11" stroke-linecap="round" stroke-linejoin="round"/>
</svg>
